<svg xmlns="http://www.w3.org/2000/svg" viewBox="0 0 72 48" fill="none"><defs><linearGradient id="g" x1="0" y1="0" x2="72" y2="48" gradientUnits="userSpaceOnUse"><stop stop-color="#A4D65E"/><stop offset="0.5" stop-color="#80BA2B"/><stop offset="1" stop-color="#4E7717"/></linearGradient></defs><g><path d="M 0.0 15.8 L 1.5 16.4 L 3.0 17.0 L 4.5 17.6 L 6.0 18.1 L 7.5 18.6 L 9.0 19.1 L 10.5 19.4 L 12.0 19.7 L 13.5 19.9 L 15.0 20.0 L 16.5 20.1 L 18.0 20.0 L 19.5 19.9 L 21.0 19.7 L 22.5 19.4 L 24.0 19.0 L 25.5 18.5 L 27.0 18.0 L 28.5 17.3 L 30.0 16.6 L 31.5 15.9 L 33.0 15.1 L 34.5 14.2 L 36.0 13.3 L 37.5 12.4 L 39.0 11.5 L 40.5 10.6 L 42.0 9.7 L 43.5 8.8 L 45.0 8.0 L 46.5 7.2 L 48.0 6.5 L 49.5 5.8 L 51.0 5.3 L 52.5 4.8 L 54.0 4.4 L 55.5 4.1 L 57.0 4.0 L 58.5 3.9 L 60.0 4.0 L 61.5 4.1 L 63.0 4.4 L 64.5 4.9 L 66.0 5.4 L 67.5 6.0 L 69.0 6.7 L 70.5 7.6 L 72.0 8.5" fill="none" stroke="url(#g)" stroke-width="3" stroke-linecap="round"/><path d="M 0.0 22.9 L 1.5 23.6 L 3.0 24.1 L 4.5 24.7 L 6.0 25.1 L 7.5 25.5 L 9.0 25.8 L 10.5 26.0 L 12.0 26.1 L 13.5 26.1 L 15.0 26.0 L 16.5 25.9 L 18.0 25.6 L 19.5 25.3 L 21.0 24.8 L 22.5 24.3 L 24.0 23.8 L 25.5 23.1 L 27.0 22.4 L 28.5 21.6 L 30.0 20.8 L 31.5 20.0 L 33.0 19.1 L 34.5 18.2 L 36.0 17.3 L 37.5 16.4 L 39.0 15.5 L 40.5 14.7 L 42.0 13.9 L 43.5 13.1 L 45.0 12.4 L 46.5 11.8 L 48.0 11.3 L 49.5 10.8 L 51.0 10.4 L 52.5 10.1 L 54.0 10.0 L 55.5 9.9 L 57.0 9.9 L 58.5 10.1 L 60.0 10.3 L 61.5 10.7 L 63.0 11.1 L 64.5 11.7 L 66.0 12.3 L 67.5 13.1 L 69.0 13.9 L 70.5 14.7 L 72.0 15.6" fill="none" stroke="url(#g)" stroke-width="3" stroke-linecap="round"/><path d="M 0.0 30.1 L 1.5 30.7 L 3.0 31.3 L 4.5 31.7 L 6.0 32.1 L 7.5 32.3 L 9.0 32.5 L 10.5 32.5 L 12.0 32.4 L 13.5 32.3 L 15.0 32.0 L 16.5 31.6 L 18.0 31.2 L 19.5 30.6 L 21.0 30.0 L 22.5 29.3 L 24.0 28.5 L 25.5 27.7 L 27.0 26.8 L 28.5 25.9 L 30.0 25.0 L 31.5 24.0 L 33.0 23.1 L 34.5 22.2 L 36.0 21.3 L 37.5 20.4 L 39.0 19.5 L 40.5 18.8 L 42.0 18.1 L 43.5 17.4 L 45.0 16.9 L 46.5 16.4 L 48.0 16.0 L 49.5 15.7 L 51.0 15.6 L 52.5 15.5 L 54.0 15.5 L 55.5 15.7 L 57.0 15.9 L 58.5 16.3 L 60.0 16.7 L 61.5 17.2 L 63.0 17.8 L 64.5 18.5 L 66.0 19.3 L 67.5 20.1 L 69.0 21.0 L 70.5 21.9 L 72.0 22.8" fill="none" stroke="url(#g)" stroke-width="3" stroke-linecap="round"/><path d="M 0.0 37.3 L 1.5 37.9 L 3.0 38.4 L 4.5 38.7 L 6.0 39.0 L 7.5 39.1 L 9.0 39.2 L 10.5 39.0 L 12.0 38.8 L 13.5 38.5 L 15.0 38.0 L 16.5 37.4 L 18.0 36.7 L 19.5 36.0 L 21.0 35.2 L 22.5 34.3 L 24.0 33.3 L 25.5 32.3 L 27.0 31.3 L 28.5 30.2 L 30.0 29.2 L 31.5 28.1 L 33.0 27.1 L 34.5 26.1 L 36.0 25.2 L 37.5 24.4 L 39.0 23.6 L 40.5 22.9 L 42.0 22.2 L 43.5 21.7 L 45.0 21.3 L 46.5 21.0 L 48.0 20.8 L 49.5 20.7 L 51.0 20.7 L 52.5 20.9 L 54.0 21.1 L 55.5 21.5 L 57.0 21.9 L 58.5 22.4 L 60.0 23.1 L 61.5 23.8 L 63.0 24.5 L 64.5 25.4 L 66.0 26.2 L 67.5 27.1 L 69.0 28.1 L 70.5 29.0 L 72.0 30.0" fill="none" stroke="url(#g)" stroke-width="3" stroke-linecap="round"/><path d="M 0.0 44.4 L 1.5 45.0 L 3.0 45.5 L 4.5 45.8 L 6.0 46.0 L 7.5 46.0 L 9.0 45.9 L 10.5 45.6 L 12.0 45.2 L 13.5 44.6 L 15.0 44.0 L 16.5 43.2 L 18.0 42.3 L 19.5 41.4 L 21.0 40.3 L 22.5 39.2 L 24.0 38.1 L 25.5 36.9 L 27.0 35.7 L 28.5 34.5 L 30.0 33.4 L 31.5 32.2 L 33.0 31.1 L 34.5 30.1 L 36.0 29.2 L 37.5 28.3 L 39.0 27.6 L 40.5 27.0 L 42.0 26.4 L 43.5 26.0 L 45.0 25.7 L 46.5 25.6 L 48.0 25.6 L 49.5 25.7 L 51.0 25.9 L 52.5 26.2 L 54.0 26.7 L 55.5 27.2 L 57.0 27.9 L 58.5 28.6 L 60.0 29.4 L 61.5 30.3 L 63.0 31.2 L 64.5 32.2 L 66.0 33.2 L 67.5 34.2 L 69.0 35.2 L 70.5 36.2 L 72.0 37.1" fill="none" stroke="url(#g)" stroke-width="3" stroke-linecap="round"/></g></svg>
