<?xml version="1.0" encoding="utf-8"?>
<!-- Generator: Adobe Illustrator 15.1.0, SVG Export Plug-In . SVG Version: 6.00 Build 0)  -->
<!DOCTYPE svg PUBLIC "-//W3C//DTD SVG 1.1//EN" "http://www.w3.org/Graphics/SVG/1.1/DTD/svg11.dtd">
<svg version="1.1" id="Ebene_1" xmlns="http://www.w3.org/2000/svg" xmlns:xlink="http://www.w3.org/1999/xlink" x="0px" y="0px"
	 width="130.713px" height="151.458px" viewBox="0 0 130.713 151.458" enable-background="new 0 0 130.713 151.458"
	 xml:space="preserve">
<rect y="0" fill="#91B80F" width="130.713" height="130.713"/>
<polygon points="10.162,141.505 10.162,151.374 16.26,151.374 16.26,150.434 11.215,150.434 11.215,141.505 "/>
<path d="M22.873,143.017l1.831,5.214h-3.688L22.873,143.017z M22.416,141.505l-3.634,9.869h1.124l0.791-2.229h4.313l0.789,2.229
	h1.124l-3.619-9.869H22.416z"/>
<g>
	<defs>
		<rect id="SVGID_1_" width="130.713" height="151.458"/>
	</defs>
	<clipPath id="SVGID_2_">
		<use xlink:href="#SVGID_1_"  overflow="visible"/>
	</clipPath>
	<path clip-path="url(#SVGID_2_)" d="M33.395,151.458c-0.972,0-1.858-0.359-2.524-1.024c-0.928-0.93-0.928-1.9-0.928-3.993
		s0-3.063,0.928-3.992c0.666-0.666,1.552-1.026,2.524-1.026c1.773,0,3.092,1.08,3.423,2.938h-1.082
		c-0.263-1.206-1.108-1.996-2.341-1.996c-0.653,0-1.276,0.249-1.706,0.692c-0.624,0.64-0.692,1.318-0.692,3.384
		s0.069,2.745,0.692,3.385c0.43,0.439,1.053,0.69,1.706,0.69c1.233,0,2.105-0.791,2.371-1.996h1.053
		C36.5,150.378,35.154,151.458,33.395,151.458"/>
	<polygon clip-path="url(#SVGID_2_)" points="46.744,141.505 42.141,147.175 42.141,141.505 41.087,141.505 41.087,151.374 
		42.141,151.374 42.141,148.617 44.22,146.123 47.229,151.374 48.478,151.374 44.927,145.316 48.033,141.505 	"/>
	<rect x="52.037" y="141.505" clip-path="url(#SVGID_2_)" width="1.054" height="9.869"/>
	<polygon clip-path="url(#SVGID_2_)" points="57.887,141.505 57.887,151.374 64.016,151.374 64.016,150.434 58.942,150.434 
		58.942,146.868 63.269,146.868 63.269,145.927 58.942,145.927 58.942,142.447 64.016,142.447 64.016,141.505 	"/>
	<path clip-path="url(#SVGID_2_)" d="M71.832,142.447h-2.631v3.618h2.631c1.152,0,1.97-0.595,1.97-1.801
		C73.802,143.057,72.984,142.447,71.832,142.447 M73.816,151.374l-2.246-4.383h-2.37v4.383h-1.056v-9.869h3.784
		c1.72,0,2.925,1.042,2.925,2.744c0,1.442-0.87,2.386-2.148,2.65l2.345,4.475H73.816z"/>
	<polygon clip-path="url(#SVGID_2_)" points="88.247,141.505 86.32,149.462 84.144,141.505 83.199,141.505 81.023,149.462 
		79.097,141.505 77.973,141.505 80.496,151.374 81.48,151.374 83.671,143.477 85.862,151.374 86.847,151.374 89.369,141.505 	"/>
	<polygon clip-path="url(#SVGID_2_)" points="92.958,141.505 92.958,151.374 99.087,151.374 99.087,150.434 94.011,150.434 
		94.011,146.868 98.336,146.868 98.336,145.927 94.011,145.927 94.011,142.447 99.087,142.447 99.087,141.505 	"/>
	<path clip-path="url(#SVGID_2_)" d="M106.903,142.447h-2.632v3.618h2.632c1.152,0,1.968-0.595,1.968-1.801
		C108.871,143.057,108.055,142.447,106.903,142.447 M108.886,151.374l-2.244-4.383h-2.371v4.383h-1.055v-9.869H107
		c1.72,0,2.925,1.042,2.925,2.744c0,1.442-0.872,2.386-2.149,2.65l2.344,4.475H108.886z"/>
	<polygon clip-path="url(#SVGID_2_)" points="119.906,141.505 115.304,147.175 115.304,141.505 114.249,141.505 114.249,151.374 
		115.304,151.374 115.304,148.617 117.384,146.123 120.392,151.374 121.639,151.374 118.09,145.316 121.197,141.505 	"/>
	<polygon clip-path="url(#SVGID_2_)" fill="#FFFFFF" points="10.252,119.919 10.252,105.734 13.849,105.734 21.296,117.436 
		28.755,105.679 32.348,105.679 32.348,119.918 29.51,119.918 29.513,110.028 23.119,119.918 19.387,119.918 13.059,110.065 
		13.059,119.918 	"/>
	<path clip-path="url(#SVGID_2_)" fill="#FFFFFF" d="M33.896,119.928c-0.615,0-1.113-0.498-1.113-1.113
		c0-0.16,0.04-0.36,0.107-0.498c0.08-0.156,8.903-12.625,8.903-12.625h3.946l9.201,14.255H51.55l-7.821-12.294l-7.188,9.877H45.4
		v2.397H33.896z"/>
	<path clip-path="url(#SVGID_2_)" fill="#FFFFFF" d="M83.504,105.693H69.247v11.816H57.241l-0.003-11.816h-2.733l0.003,11.813
		c0,1.368,1.009,2.464,2.377,2.464l15.195-0.017v-12.008h10.651h0.153c0.231,0,0.423,0.189,0.423,0.421
		c0,0.165-0.094,0.306-0.228,0.378l-7.378,2.589v2.4l7.3,6.231l3.994-0.011l-8.159-7.265l5.69-2.208
		c0.922-0.367,1.572-1.268,1.572-2.318c0-1.378-1.117-2.494-2.494-2.494"/>
	<path clip-path="url(#SVGID_2_)" fill="#FFFFFF" d="M106.724,119.941v-12.006h10.654h0.148c0.234,0,0.424,0.188,0.424,0.423
		c0,0.164-0.093,0.307-0.229,0.376l-7.376,2.591v2.4l7.3,6.229l3.992-0.012l-8.159-7.261l5.692-2.21
		c0.92-0.366,1.571-1.265,1.571-2.318c0-1.377-1.073-2.454-2.45-2.454l-14.398-0.004v11.805H89.947v-3.719h10.36v-2.422H89.923
		v-3.39h12.033v-2.276H87.164v14.236L106.724,119.941z"/>
</g>
</svg>
