<?xml version="1.0" encoding="utf-8"?>
<!-- Generator: Adobe Illustrator 26.4.1, SVG Export Plug-In . SVG Version: 6.00 Build 0)  -->
<svg version="1.1" id="logo" xmlns="http://www.w3.org/2000/svg" xmlns:xlink="http://www.w3.org/1999/xlink" x="0px" y="0px"
	 viewBox="0 0 280 44" style="enable-background:new 0 0 280 44;" xml:space="preserve">
<path id="Path_1027-2" style="fill:#334155;" d="M65.5,2.2c0.8,0,1.6,0.1,2.4,0.3c0.6,0.2,1.2,0.4,1.8,0.7c0.5,0.3,0.9,0.6,1.3,1
	c0.3,0.3,0.6,0.7,0.9,1.1c0.6,0.9,0.9,2,0.9,3.1v2.4c-0.1,1.1-0.4,2.2-0.9,3.1c-0.2,0.5-0.5,0.9-0.9,1.3c-0.4,0.3-0.8,0.6-1.3,0.9
	c-0.6,0.3-1.2,0.5-1.8,0.7c-0.8,0.2-1.6,0.3-2.4,0.3h-1.8v3.8c0,0.1,0,0.3-0.2,0.4c-0.1,0.1-0.2,0.1-0.3,0.1h-3.4
	c-0.1,0-0.2,0-0.3-0.1c-0.1-0.1-0.2-0.2-0.2-0.4V2.7c0-0.1,0.1-0.3,0.2-0.4c0.1-0.1,0.2-0.1,0.3-0.1L65.5,2.2L65.5,2.2z M63.7,6.1
	v7.1h1.8c0.3,0,0.6,0,0.8-0.1c0.3-0.1,0.7-0.2,1-0.4c0.3-0.2,0.6-0.5,0.8-0.9c0.2-0.5,0.4-1,0.3-1.6V9.1c0-0.5-0.1-1.1-0.3-1.6
	c-0.2-0.3-0.5-0.6-0.8-0.9c-0.3-0.2-0.6-0.3-1-0.4C66,6.1,65.8,6,65.5,6L63.7,6.1z"/>
<path id="Path_1028-2" style="fill:#334155;" d="M86.2,17.8c0.2,0,0.4,0.1,0.4,0.3c0.1,0.8,0.2,1.3,0.3,1.7c0.1,0.4,0.1,0.7,0.1,0.8
	c0,0.1,0,0.2,0.1,0.2c0,0.1,0,0.2-0.1,0.2c-0.1,0.1-0.1,0.1-0.2,0.2c-0.7,0.2-1.4,0.4-2.2,0.4s-1.6,0.1-2.4,0.1
	c-0.9,0-1.8-0.1-2.7-0.4c-0.8-0.2-1.6-0.6-2.2-1.2c-0.6-0.6-1.1-1.3-1.4-2.1c-0.4-1-0.5-2.1-0.5-3.2v-2.2c0-0.6,0.1-1.1,0.2-1.7
	c0.2-1.6,1.2-3,2.7-3.8c1.1-0.5,2.3-0.8,3.4-0.7c1.2-0.1,2.4,0.2,3.5,0.7c0.8,0.4,1.4,1,1.9,1.7c0.4,0.6,0.7,1.3,0.8,2.1
	c0.1,0.6,0.2,1.1,0.2,1.7v2.7c0,0.1,0,0.3-0.2,0.4c-0.1,0.1-0.2,0.1-0.3,0.1h-7.8c-0.1,0.7,0.2,1.5,0.8,1.9c0.8,0.4,1.7,0.5,2.7,0.5
	c0.5,0,1,0,1.5-0.1C85.3,17.9,85.8,17.9,86.2,17.8 M79.8,12.4h3.9v-0.1c0-0.4-0.1-0.9-0.2-1.3c-0.1-0.3-0.3-0.5-0.6-0.7
	c-0.2-0.1-0.4-0.2-0.6-0.3c-0.2,0-0.3,0-0.5,0s-0.3,0-0.5,0c-0.2,0-0.5,0.1-0.7,0.3c-0.2,0.2-0.4,0.4-0.6,0.7
	c-0.2,0.4-0.3,0.8-0.2,1.3L79.8,12.4z"/>
<path id="Path_1029-2" style="fill:#334155;" d="M99.4,21.6c-0.3,0-0.6,0.1-0.9,0.1c-0.4,0-0.7,0.1-1.1,0.1c-0.6,0-1.3-0.1-1.9-0.3
	c-0.6-0.2-1.1-0.5-1.6-0.9c-0.5-0.5-0.9-1-1.1-1.7c-0.3-0.8-0.4-1.7-0.4-2.6v-6h-1.5c-0.1,0-0.3,0-0.4-0.2c-0.1-0.1-0.1-0.2-0.1-0.3
	V7.1c0-0.1,0-0.2,0.1-0.3s0.2-0.2,0.4-0.2h1.5V5l0.5-2.4c0-0.1,0.1-0.3,0.2-0.4c0.1-0.1,0.2-0.1,0.3-0.1h2.9c0.1,0,0.2,0,0.3,0.1
	c0.1,0.1,0.2,0.2,0.2,0.4v3.8h2.3c0.1,0,0.3,0.1,0.4,0.2c0.1,0.1,0.1,0.2,0.1,0.3v2.7c0,0.1,0,0.2-0.1,0.3s-0.2,0.2-0.4,0.2h-2.3
	v5.9c0,0.2,0,0.4,0.1,0.6c0.1,0.2,0.2,0.4,0.3,0.6c0.2,0.2,0.4,0.4,0.6,0.5c0.3,0.1,0.6,0.2,0.9,0.2c0.2,0,0.4,0,0.5,0s0.1,0,0.2,0
	c0.1,0,0.3,0.1,0.4,0.2c0.1,0.1,0.1,0.2,0.1,0.3v2.5C99.9,21.4,99.8,21.6,99.4,21.6"/>
<path id="Path_1030-2" style="fill:#334155;" d="M113.2,17.8c0.2,0,0.4,0.1,0.4,0.3c0.1,0.8,0.2,1.3,0.3,1.7s0.1,0.7,0.1,0.8
	c0,0.1,0,0.2,0.1,0.2c0,0.1,0,0.2-0.1,0.2c-0.1,0.1-0.1,0.1-0.2,0.2c-0.7,0.2-1.4,0.4-2.2,0.4s-1.6,0.1-2.4,0.1
	c-0.9,0-1.8-0.1-2.7-0.4c-0.8-0.2-1.6-0.6-2.2-1.2c-0.6-0.6-1.1-1.3-1.4-2.1c-0.4-1-0.5-2.1-0.5-3.2v-2.2c0-0.6,0.1-1.1,0.2-1.7
	c0.2-1.6,1.2-3,2.7-3.8c1.1-0.5,2.3-0.8,3.4-0.7c1.2-0.1,2.4,0.2,3.5,0.7c0.8,0.4,1.4,1,1.9,1.7c0.4,0.6,0.7,1.3,0.8,2.1
	c0.1,0.6,0.2,1.1,0.2,1.7v2.7c0,0.1,0,0.3-0.2,0.4c-0.1,0.1-0.2,0.1-0.3,0.1h-7.8c-0.1,0.7,0.2,1.5,0.8,1.9c0.8,0.4,1.7,0.5,2.7,0.5
	c0.5,0,1,0,1.5-0.1C112.2,17.9,112.7,17.9,113.2,17.8 M106.7,12.4h3.9v-0.1c0-0.4-0.1-0.9-0.2-1.3c-0.1-0.3-0.3-0.5-0.6-0.7
	c-0.2-0.1-0.4-0.2-0.6-0.3c-0.2,0-0.3,0-0.5,0c-0.2,0-0.3,0-0.5,0s-0.5,0.1-0.7,0.3s-0.4,0.4-0.6,0.7c-0.2,0.4-0.3,0.8-0.2,1.3
	L106.7,12.4z"/>
<path id="Path_1031-2" style="fill:#334155;" d="M126.5,10.1c-0.1,0-0.4,0-0.6-0.1c-0.3,0-0.6,0-0.9,0c-0.3,0-0.6,0.1-0.9,0.2
	c-0.5,0.2-0.9,0.4-1.3,0.7v10.2c0,0.1,0,0.3-0.2,0.4c-0.1,0.1-0.2,0.1-0.3,0.1h-3.4c-0.1,0-0.2,0-0.3-0.1c-0.1-0.1-0.2-0.2-0.2-0.4
	v-14c0-0.1,0-0.3,0.2-0.4c0.1-0.1,0.2-0.1,0.3-0.1h2.8c0.2,0,0.5,0.1,0.6,0.3l0.5,0.8c0.3-0.5,0.7-0.9,1.2-1.1
	c0.4-0.2,0.9-0.3,1.4-0.3c0.3,0,0.5,0,0.7,0c0.1,0,0.3,0,0.4,0.1c0.2,0.1,0.4,0.3,0.4,0.5v2.8C126.9,10,126.8,10.1,126.5,10.1"/>
<path id="Path_1032-2" style="fill:#334155;" d="M134,7.7c0.4-0.5,0.9-0.9,1.6-1.1c0.7-0.2,1.4-0.3,2.1-0.3c0.6,0,1.2,0.1,1.8,0.3
	c0.6,0.2,1.1,0.5,1.5,1c0.4,0.4,0.8,1,1,1.5c0.3,0.6,0.4,1.3,0.4,2V21c0,0.1,0,0.3-0.2,0.4c-0.1,0.1-0.2,0.1-0.3,0.1h-3.4
	c-0.1,0-0.2,0-0.3-0.1c-0.1-0.1-0.2-0.2-0.2-0.4v-9.3c0-0.2,0-0.4-0.1-0.5c-0.1-0.2-0.2-0.4-0.3-0.6c-0.2-0.2-0.4-0.4-0.6-0.5
	c-0.3-0.1-0.6-0.2-1-0.2c-0.3,0-0.6,0.1-0.9,0.2c-0.4,0.2-0.8,0.4-1.2,0.7V21c0,0.1,0,0.3-0.2,0.4c-0.1,0.1-0.2,0.1-0.3,0.1H130
	c-0.1,0-0.2,0-0.3-0.1c-0.1-0.1-0.2-0.2-0.2-0.4V2.6c0-0.1,0.1-0.3,0.2-0.4c0.1-0.1,0.2-0.1,0.3-0.1h3.4c0.1,0,0.2,0,0.3,0.1
	c0.1,0.1,0.2,0.2,0.2,0.4L134,7.7z"/>
<path id="Path_1033-2" style="fill:#334155;" d="M157.6,21.1c0,0.1,0,0.3-0.2,0.4c-0.1,0.1-0.2,0.1-0.3,0.1h-3
	c-0.2,0-0.4-0.1-0.6-0.3l-0.4-0.5c-0.5,0.4-1.1,0.7-1.8,0.9c-0.6,0.1-1.1,0.2-1.7,0.2c-0.5,0-1-0.1-1.4-0.3
	c-0.5-0.2-0.9-0.4-1.3-0.8c-0.4-0.4-0.7-0.9-0.9-1.4c-0.3-0.7-0.4-1.4-0.4-2.2s0.1-1.6,0.4-2.4c0.3-0.6,0.7-1.1,1.2-1.5
	c0.5-0.4,1.1-0.6,1.7-0.7c0.7-0.1,1.4-0.2,2.1-0.2h2v-0.2c0-1.4-0.8-2.1-2.3-2.1c-0.5,0-1,0-1.5,0.1c-0.6,0.1-1.2,0.2-1.8,0.3
	c-0.2,0-0.4-0.1-0.4-0.3c-0.1-0.6-0.2-1.1-0.3-1.4c-0.1-0.3-0.1-0.6-0.1-0.8s0-0.3,0-0.5s0.1-0.4,0.3-0.5c0.8-0.3,1.6-0.5,2.5-0.6
	c0.9-0.1,1.8-0.1,2.6-0.1c0.8,0,1.5,0.1,2.3,0.4c0.7,0.2,1.3,0.6,1.8,1.1s0.9,1.2,1.2,1.9c0.3,0.8,0.4,1.7,0.4,2.6L157.6,21.1z
	 M150,16.9c-0.1,0.4,0.1,0.8,0.4,1.1c0.3,0.2,0.8,0.3,1.2,0.3c0.4,0,0.7-0.1,1.1-0.2c0.3-0.1,0.5-0.3,0.5-0.6v-2.1h-0.9
	c-0.2,0-0.5,0-0.7,0.1c-0.2,0-0.5,0.1-0.7,0.2c-0.2,0.1-0.4,0.3-0.5,0.5C150.1,16.3,150,16.6,150,16.9"/>
<path id="Path_1034-2" style="fill:#334155;" d="M165.8,7.7c0.5-0.5,1-0.8,1.6-1.1c0.6-0.2,1.3-0.3,2-0.3c1.3-0.1,2.6,0.4,3.5,1.3
	c0.9,1,1.4,2.2,1.3,3.6v9.9c0,0.1,0,0.3-0.2,0.4c-0.1,0.1-0.2,0.1-0.3,0.1h-3.4c-0.1,0-0.2,0-0.3-0.1c-0.1-0.1-0.2-0.2-0.2-0.4v-9.3
	c0-0.2,0-0.4-0.1-0.5c-0.1-0.2-0.2-0.4-0.3-0.6c-0.2-0.2-0.4-0.4-0.6-0.5c-0.3-0.1-0.6-0.2-1-0.2c-0.3,0-0.6,0.1-0.9,0.2
	c-0.4,0.2-0.8,0.4-1.2,0.7v10.2c0,0.1,0,0.3-0.2,0.4c-0.1,0.1-0.2,0.1-0.3,0.1h-3.4c-0.1,0-0.2,0-0.3-0.1c-0.1-0.1-0.2-0.2-0.2-0.4
	v-14c0-0.1,0-0.3,0.2-0.4c0.1-0.1,0.2-0.1,0.3-0.1h2.8c0.2,0,0.5,0.1,0.6,0.3L165.8,7.7z"/>
<path id="Path_1035-2" style="fill:#334155;" d="M178.8,17c0.2,0.1,0.5,0.2,0.8,0.3c0.3,0.1,0.7,0.2,1,0.3c0.4,0.1,0.7,0.2,1.1,0.3
	c0.3,0.1,0.7,0.1,1,0.1c0.5,0,1.1,0,1.6-0.2c0.3-0.1,0.5-0.4,0.5-0.7c0-0.4-0.2-0.7-0.6-0.8c-0.4-0.2-0.9-0.4-1.4-0.5
	c-0.6-0.2-1.2-0.3-1.8-0.5c-0.6-0.2-1.2-0.4-1.8-0.8c-0.6-0.3-1-0.8-1.4-1.4c-0.4-0.7-0.6-1.4-0.6-2.2s0.2-1.5,0.5-2.2
	c0.3-0.6,0.8-1.1,1.3-1.4c0.6-0.4,1.2-0.6,1.8-0.8c0.7-0.2,1.3-0.2,2-0.2c0.9,0,1.8,0.1,2.7,0.2c0.7,0.1,1.4,0.3,2.1,0.6
	c0.2,0.1,0.3,0.2,0.3,0.4c0,0.1,0,0.1,0,0.2c0,0.1,0,0.1-0.1,0.2l-1,2.2c0,0.1-0.1,0.1-0.2,0.2c-0.1,0.1-0.2,0.1-0.2,0.1
	c-0.1,0-0.1,0-0.2,0s-0.1,0-0.2-0.1c-0.4-0.1-0.8-0.2-1.3-0.2c-0.5-0.1-1-0.1-1.5-0.1c-0.3,0-0.7,0-1,0.1c-0.2,0.1-0.4,0.1-0.5,0.3
	c-0.1,0.1-0.2,0.2-0.2,0.3s0,0.2,0,0.2c0,0.3,0.2,0.6,0.6,0.8c0.5,0.2,0.9,0.4,1.4,0.5c0.6,0.2,1.2,0.3,1.8,0.5
	c0.6,0.2,1.3,0.4,1.8,0.8c0.6,0.4,1,0.8,1.4,1.4c0.4,0.7,0.6,1.4,0.6,2.2c0,0.6-0.1,1.1-0.3,1.7c-0.2,0.6-0.5,1.1-1,1.5
	c-0.6,0.5-1.2,0.8-1.9,1c-1,0.3-2,0.4-3,0.4c-0.7,0-1.3-0.1-2-0.2c-0.5-0.1-1.1-0.2-1.6-0.4c-0.4-0.2-0.9-0.3-1.3-0.6
	c-0.3-0.2-0.6-0.4-0.9-0.6c-0.2-0.1-0.3-0.3-0.3-0.5c0-0.1,0-0.2,0.1-0.3l0.9-2c0.1-0.2,0.3-0.3,0.5-0.3
	C178.7,16.9,178.8,17,178.8,17"/>
<path id="Path_1036-2" style="fill:#334155;" d="M195.9,19.7c-0.1-0.1-0.2-0.1-0.2-0.2c0-0.1,0-0.1,0-0.2c0-0.1,0-0.2,0.1-0.3
	l1.3-2.4c0-0.1,0.1-0.1,0.2-0.2c0.1-0.1,0.2-0.1,0.2-0.1c0.1,0,0.2,0,0.3,0.1c0.8,0.5,1.6,0.8,2.5,1.1c0.8,0.2,1.6,0.3,2.4,0.4
	c0.5,0,1,0,1.5-0.2c0.3-0.1,0.6-0.2,0.8-0.4c0.2-0.1,0.3-0.3,0.3-0.6c0-0.2,0.1-0.4,0.1-0.6c0-0.5-0.3-1-0.7-1.3
	c-0.6-0.4-1.2-0.7-1.8-0.9c-0.7-0.3-1.5-0.5-2.3-0.8c-0.8-0.3-1.6-0.6-2.3-1.1c-0.7-0.4-1.3-1-1.8-1.7c-0.5-0.8-0.8-1.7-0.7-2.6
	c0-0.9,0.2-1.8,0.5-2.6c0.3-0.7,0.8-1.3,1.4-1.8c0.6-0.5,1.4-0.8,2.2-1c0.9-0.2,1.7-0.3,2.6-0.3c0.6,0,1.1,0,1.5,0
	c0.4,0,0.9,0.1,1.3,0.2c0.4,0.1,0.8,0.2,1.2,0.3c0.4,0.2,0.9,0.3,1.3,0.5c0.2,0.1,0.3,0.2,0.2,0.4c0,0.1,0,0.1,0,0.2s0,0.1-0.1,0.2
	l-1,2.3c0,0.1-0.1,0.1-0.2,0.2c-0.1,0.1-0.2,0.1-0.2,0.1c-0.1,0-0.1,0-0.2,0s-0.1,0-0.2-0.1c-0.5-0.1-1.1-0.2-1.6-0.3
	c-0.6-0.1-1.2-0.1-1.9-0.1c-0.7,0-1.4,0.1-2,0.3c-0.5,0.2-0.8,0.8-0.7,1.3c0,0.5,0.3,0.9,0.7,1.2c0.6,0.3,1.2,0.6,1.8,0.8
	c0.7,0.2,1.5,0.5,2.3,0.8c0.8,0.3,1.6,0.6,2.3,1.1c0.7,0.5,1.3,1.1,1.8,1.8c0.5,0.8,0.8,1.8,0.7,2.8c0,0.5-0.1,0.9-0.2,1.3
	c-0.2,0.7-0.5,1.4-0.9,1.9c-0.6,0.7-1.3,1.3-2.2,1.7c-1.3,0.5-2.6,0.8-4,0.7c-0.8,0-1.6-0.1-2.3-0.3c-0.7-0.1-1.5-0.3-2.2-0.6
	C197.2,20.7,196.5,20.3,195.9,19.7"/>
<path id="Path_1037-2" style="fill:#334155;" d="M218.2,21.8c-0.9,0-1.8-0.2-2.7-0.5c-0.8-0.3-1.4-0.8-1.9-1.4
	c-0.5-0.6-1-1.4-1.2-2.2c-0.3-0.9-0.4-1.8-0.4-2.8v-1.5c0-0.9,0.1-1.9,0.4-2.8c0.2-0.8,0.7-1.6,1.2-2.2c0.5-0.6,1.2-1.1,1.9-1.4
	c0.8-0.4,1.7-0.5,2.7-0.5c0.8,0,1.6,0.1,2.4,0.2c0.8,0.1,1.5,0.3,2.2,0.5c0.1,0,0.2,0.1,0.2,0.2c0.1,0.1,0.1,0.2,0.1,0.2l-0.5,2.7
	c-0.1,0.2-0.2,0.3-0.4,0.3l-0.5-0.1c-0.3-0.1-0.7-0.2-1.1-0.2c-0.4-0.1-0.7-0.1-1.1-0.1c-0.6,0-1.1,0.1-1.7,0.3
	c-0.4,0.2-0.7,0.4-1,0.8c-0.2,0.3-0.4,0.7-0.4,1.1c-0.1,0.4-0.1,0.8-0.1,1.2V15c0,0.4,0,0.8,0.1,1.2c0.1,0.4,0.2,0.7,0.4,1.1
	c0.2,0.3,0.6,0.6,1,0.8c0.5,0.2,1.1,0.3,1.7,0.3c0.4,0,0.8,0,1.2-0.1c0.4-0.1,0.7-0.1,1.1-0.2l0.5-0.1c0.2,0,0.4,0.1,0.4,0.3
	l0.5,2.6c0,0.1,0,0.2-0.1,0.2c-0.1,0.1-0.1,0.1-0.2,0.2c-0.7,0.3-1.5,0.5-2.3,0.6C219.8,21.7,219,21.8,218.2,21.8"/>
<path id="Path_1038-2" style="fill:#334155;" d="M230.7,7.7c0.4-0.5,0.9-0.9,1.6-1.1c0.7-0.2,1.4-0.3,2.1-0.3c0.6,0,1.2,0.1,1.8,0.3
	c0.6,0.2,1.1,0.5,1.5,1c0.4,0.4,0.8,1,1,1.5c0.3,0.6,0.4,1.3,0.4,2V21c0,0.1,0,0.3-0.2,0.4c-0.1,0.1-0.2,0.1-0.3,0.1h-3.4
	c-0.1,0-0.2,0-0.3-0.1c-0.1-0.1-0.2-0.2-0.2-0.4v-9.3c0-0.2,0-0.4-0.1-0.5c-0.1-0.2-0.2-0.4-0.3-0.6c-0.2-0.2-0.4-0.4-0.6-0.5
	c-0.3-0.1-0.6-0.2-1-0.2c-0.3,0-0.6,0.1-0.9,0.2c-0.4,0.2-0.8,0.4-1.2,0.7V21c0,0.1,0,0.3-0.2,0.4c-0.1,0.1-0.2,0.1-0.3,0.1h-3.4
	c-0.1,0-0.2,0-0.3-0.1c-0.1-0.1-0.2-0.2-0.2-0.4V2.6c0-0.1,0.1-0.3,0.2-0.4c0.1-0.1,0.2-0.1,0.3-0.1h3.4c0.1,0,0.2,0,0.3,0.1
	c0.1,0.1,0.2,0.2,0.2,0.4L230.7,7.7z"/>
<path id="Path_1039-2" style="fill:#334155;" d="M245.2,5.3c-0.6,0-1.1-0.1-1.6-0.4c-0.5-0.4-0.7-1-0.7-1.6
	c-0.1-0.6,0.2-1.3,0.7-1.7c0.5-0.3,1.1-0.4,1.6-0.4c0.6,0,1.2,0.1,1.7,0.4c0.5,0.4,0.8,1,0.7,1.7c0.1,0.6-0.2,1.2-0.7,1.6
	C246.3,5.2,245.8,5.4,245.2,5.3 M243,7.1c0-0.1,0.1-0.3,0.2-0.4c0.1-0.1,0.2-0.1,0.3-0.1h3.4c0.1,0,0.2,0,0.3,0.1
	c0.1,0.1,0.2,0.2,0.2,0.4v14c0,0.1,0,0.3-0.2,0.4c-0.1,0.1-0.2,0.1-0.3,0.1h-3.4c-0.1,0-0.2,0-0.3-0.1c-0.1-0.1-0.2-0.2-0.2-0.4V7.1
	z"/>
<path id="Path_1040-2" style="fill:#334155;" d="M255.6,7c0.5-0.3,1-0.4,1.6-0.5c0.4-0.1,0.8-0.1,1.3-0.1c0.6,0,1.3,0.1,1.9,0.3
	c0.7,0.2,1.3,0.6,1.8,1.1c0.6,0.6,1.1,1.4,1.4,2.2c0.4,1.1,0.6,2.3,0.5,3.5c0,1.3-0.1,2.7-0.5,4c-0.2,0.9-0.7,1.8-1.3,2.5
	c-0.5,0.6-1.2,1.1-2,1.3c-0.8,0.3-1.7,0.4-2.6,0.4c-0.5,0-1.1,0-1.8-0.1c-0.7-0.1-1.5-0.2-2.1-0.3c-0.6-0.1-1.2-0.3-1.8-0.5
	c-0.5-0.2-0.7-0.4-0.7-0.6V2.6c0-0.1,0-0.3,0.2-0.4c0.1-0.1,0.2-0.1,0.3-0.1h3.4c0.1,0,0.2,0.1,0.3,0.1c0.1,0.1,0.2,0.2,0.2,0.4
	L255.6,7z M255.6,17.7c0.2,0.1,0.4,0.1,0.6,0.2c0.2,0,0.4,0.1,0.6,0.1s0.4,0,0.6,0c0.3,0,0.5,0,0.8-0.1c0.3,0,0.5-0.1,0.7-0.3
	s0.4-0.4,0.5-0.6c0.2-0.3,0.2-0.6,0.2-1c0-0.2,0-0.5,0-0.8c0-0.2,0-0.5,0-0.7s0-0.5,0-0.7s0-0.5,0-0.7s0-0.4,0-0.6
	c0-0.2,0-0.4,0-0.7s-0.1-0.7-0.2-1c-0.1-0.2-0.3-0.4-0.5-0.6c-0.2-0.1-0.5-0.2-0.7-0.3s-0.5-0.1-0.8-0.1c-0.2,0-0.4,0-0.6,0
	s-0.4,0.1-0.5,0.1c-0.2,0-0.4,0.1-0.6,0.2v7.7H255.6z"/>
<path id="Path_1041-2" style="fill:#334155;" d="M267.2,2.7c0-0.1,0.1-0.3,0.2-0.4c0.1-0.1,0.2-0.1,0.3-0.1h3.4c0.1,0,0.2,0,0.3,0.1
	s0.2,0.2,0.2,0.4v18.3c0,0.1,0,0.3-0.2,0.4c-0.1,0.1-0.2,0.1-0.3,0.1h-3.4c-0.1,0-0.2,0-0.3-0.1c-0.1-0.1-0.2-0.2-0.2-0.4V2.7z"/>
<path id="Path_1042-2" style="fill:#334155;" d="M277.6,5.3c-0.6,0-1.1-0.1-1.6-0.4c-0.5-0.4-0.7-1-0.7-1.6
	c-0.1-0.6,0.2-1.3,0.7-1.7c0.5-0.3,1.1-0.4,1.6-0.4c0.6,0,1.2,0.1,1.7,0.4c0.5,0.4,0.8,1,0.7,1.7c0.1,0.6-0.2,1.2-0.7,1.6
	C278.7,5.2,278.1,5.4,277.6,5.3 M275.3,7.1c0-0.1,0.1-0.3,0.2-0.4c0.1-0.1,0.2-0.1,0.3-0.1h3.4c0.1,0,0.2,0,0.3,0.1s0.2,0.2,0.2,0.4
	v14c0,0.1,0,0.3-0.2,0.4c-0.1,0.1-0.2,0.1-0.3,0.1h-3.4c-0.1,0-0.2,0-0.3-0.1c-0.1-0.1-0.2-0.2-0.2-0.4V7.1z"/>
<path id="Path_1043-2" style="fill:#334155;" d="M65.4,30.1C65.1,30,64.8,30,64.6,30s-0.4-0.1-0.6-0.1s-0.4,0-0.5,0s-0.4,0-0.6,0
	c-0.5,0-1,0-1.4,0.1c-0.4,0-0.8,0.2-1.1,0.3c-0.3,0.2-0.5,0.4-0.7,0.7c-0.2,0.3-0.3,0.7-0.2,1.1c0,0.5,0.2,1.1,0.6,1.4
	c0.4,0.4,1,0.7,1.5,0.9c0.6,0.3,1.3,0.5,2,0.7c0.7,0.2,1.3,0.5,2,0.8c0.6,0.3,1.1,0.7,1.5,1.2c0.4,0.6,0.6,1.3,0.6,2
	c0,0.3-0.1,0.7-0.1,1c-0.1,0.4-0.3,0.8-0.6,1.2c-0.4,0.4-0.9,0.8-1.5,1c-0.9,0.3-1.8,0.4-2.7,0.4c-0.4,0-0.9,0-1.3-0.1
	c-0.4-0.1-0.9-0.1-1.3-0.2c-0.5-0.1-0.9-0.3-1.3-0.4c-0.1,0-0.1-0.1-0.1-0.2v-0.1v-0.1L59,41c0,0,0-0.1,0.1-0.1h0.1h0.1
	c0.6,0.3,1.2,0.4,1.9,0.5c0.6,0.1,1.1,0.1,1.7,0.2c0.6,0,1.3,0,1.9-0.2c0.4-0.1,0.8-0.3,1.1-0.5c0.2-0.2,0.4-0.4,0.5-0.7
	c0.1-0.3,0.1-0.6,0.1-0.8c0-0.6-0.2-1.1-0.6-1.5c-0.4-0.4-0.9-0.7-1.5-0.9c-0.6-0.3-1.3-0.5-2-0.7c-0.7-0.2-1.3-0.4-2-0.7
	c-0.6-0.3-1.1-0.7-1.5-1.2s-0.6-1.2-0.6-1.9c0-0.6,0.1-1.1,0.4-1.6c0.2-0.4,0.6-0.8,1-1.1c0.4-0.3,0.9-0.5,1.4-0.6
	c0.6-0.1,1.1-0.2,1.7-0.2c0.6,0,1.2,0,1.8,0.1c0.5,0.1,0.9,0.2,1.4,0.3c0.1,0,0.1,0.1,0.1,0.2c0,0.1,0,0.1,0,0.2L66,30.3
	c0,0,0,0.1-0.1,0.1C65.5,30.1,65.5,30.1,65.4,30.1"/>
<path id="Path_1044-2" style="fill:#334155;" d="M69.6,36.5c-0.1-1.3,0.4-2.6,1.2-3.6c0.9-0.9,2.1-1.4,3.3-1.3c0.4,0,0.8,0,1.3,0
	c0.4,0,0.8,0.1,1.2,0.2c0.1,0,0.2,0.1,0.2,0.2l-0.1,0.8c0,0.1-0.1,0.2-0.2,0.2c-0.3-0.1-0.7-0.1-1-0.2c-0.3,0-0.6,0-0.8,0
	c-0.6,0-1.3,0.1-1.9,0.3c-0.4,0.2-0.8,0.5-1.1,0.9c-0.3,0.4-0.4,0.8-0.5,1.3c-0.1,0.5-0.1,1-0.1,1.5v0.3c0,0.5,0,1,0.1,1.5
	c0.1,0.5,0.3,0.9,0.5,1.3c0.3,0.4,0.7,0.7,1.1,0.9c0.6,0.3,1.2,0.4,1.9,0.3c0.2,0,0.5,0,0.8,0c0.3,0,0.7-0.1,1-0.2
	c0.1,0,0.2,0.1,0.2,0.2l0.1,0.8c0,0.1-0.1,0.2-0.2,0.2c-0.4,0.1-0.8,0.2-1.2,0.2c-0.4,0-0.8,0-1.3,0c-1.2,0.1-2.4-0.4-3.3-1.3
	c-0.8-1-1.3-2.3-1.2-3.6V36.5z"/>
<path id="Path_1045-2" style="fill:#334155;" d="M87.2,35.8c0-0.3,0-0.7-0.1-1c-0.2-0.7-0.7-1.3-1.4-1.6c-0.5-0.2-1-0.3-1.5-0.2
	c-0.2,0-0.4,0-0.6,0.1c-0.3,0.1-0.5,0.2-0.8,0.3c-0.3,0.2-0.6,0.4-0.9,0.6c-0.3,0.3-0.6,0.6-0.8,0.9v7.4c0,0.1,0,0.1-0.1,0.2
	c-0.1,0-0.1,0.1-0.2,0.1H80c-0.1,0-0.1,0-0.2-0.1c-0.1-0.1-0.1-0.1-0.1-0.2V28.9c0-0.1,0-0.1,0.1-0.2c0.1,0,0.1-0.1,0.2-0.1h0.8
	c0.1,0,0.1,0,0.2,0.1c0.1,0.1,0.1,0.1,0.1,0.2v4.2c0.2-0.4,0.5-0.6,0.9-0.9c0.3-0.2,0.7-0.3,1-0.4c0.3-0.1,0.6-0.1,0.9-0.2
	c0.3,0,0.5,0,0.6,0c1.1-0.1,2.1,0.3,2.9,1c0.8,0.8,1.2,1.9,1.1,3v6.5c0,0.1,0,0.1-0.1,0.2c-0.1,0-0.1,0.1-0.2,0.1h-0.8
	c-0.1,0-0.1,0-0.2-0.1c-0.1-0.1-0.1-0.1-0.1-0.2L87.2,35.8z"/>
<path id="Path_1046-2" style="fill:#334155;" d="M97,32.9c-0.2,0-0.3,0-0.5,0h-0.6c-0.4,0-0.8,0.1-1.2,0.3c-0.5,0.2-0.9,0.5-1.3,0.9
	v8.1c0,0.1,0,0.1-0.1,0.2c-0.1,0-0.1,0.1-0.2,0.1h-0.8c-0.1,0-0.1,0-0.2-0.1C92,42.3,92,42.3,92,42.2V32c0-0.1,0-0.1,0.1-0.2
	c0.1,0,0.1-0.1,0.2-0.1H93c0.1,0,0.2,0.1,0.2,0.2l0.2,0.8c0.7-0.8,1.7-1.2,2.8-1.2h0.3c0.2,0,0.3,0,0.5,0c0.1,0,0.2,0.1,0.2,0.2v0.9
	C97.2,32.8,97.1,32.9,97,32.9"/>
<path id="Path_1047-2" style="fill:#334155;" d="M106.2,41.1c0.2,0,0.2,0.1,0.3,0.2l0.1,0.8v0.1c0,0.1-0.1,0.1-0.1,0.1
	c-0.4,0.1-0.8,0.1-1.3,0.2c-0.5,0-0.9,0.1-1.4,0.1c-0.6,0-1.3-0.1-1.9-0.2c-0.6-0.1-1.1-0.4-1.5-0.8c-0.4-0.4-0.8-0.9-1-1.5
	c-0.3-0.7-0.4-1.5-0.4-2.3v-1.6c0-0.4,0.1-0.8,0.1-1.2c0.1-0.5,0.3-1,0.6-1.5c0.3-0.5,0.8-0.9,1.3-1.3c0.7-0.4,1.5-0.6,2.2-0.5
	c0.8,0,1.7,0.2,2.4,0.6c0.5,0.3,1,0.8,1.3,1.3c0.3,0.5,0.4,1,0.5,1.5c0.1,0.4,0.1,0.8,0.1,1.2v1.3c0,0.1,0,0.1-0.1,0.2
	c-0.1,0-0.1,0.1-0.2,0.1h-7.1v0.5c0,0.5,0.1,1.1,0.4,1.6c0.2,0.4,0.5,0.7,0.8,0.9c0.4,0.2,0.9,0.3,1.3,0.4c0.5,0,1.1,0.1,1.8,0.1
	c0.2,0,0.4,0,0.6,0C105.5,41.2,105.8,41.2,106.2,41.1 M106.2,36.6c0-0.7-0.1-1.4-0.4-2c-0.2-0.4-0.5-0.8-0.8-1.1
	c-0.3-0.2-0.6-0.4-1-0.4c-0.3,0-0.5-0.1-0.8-0.1c-0.3,0-0.6,0-0.8,0.1c-0.4,0.1-0.7,0.2-1,0.4c-0.4,0.3-0.7,0.7-0.8,1.1
	c-0.3,0.6-0.4,1.3-0.3,2H106.2z"/>
<path id="Path_1048-2" style="fill:#334155;" d="M111.4,30.9c-0.2,0-0.4-0.1-0.6-0.2c-0.3-0.3-0.3-0.8-0.1-1.1c0,0,0,0,0.1-0.1
	c0.4-0.2,0.8-0.2,1.2,0c0.3,0.3,0.3,0.8,0,1.1l0,0C111.8,30.8,111.6,30.9,111.4,30.9 M112.1,42.2c0,0.1,0,0.1-0.1,0.2
	c-0.1,0-0.1,0.1-0.2,0.1H111c-0.1,0-0.1,0-0.2-0.1c-0.1-0.1-0.1-0.1-0.1-0.2V32c0-0.1,0-0.1,0.1-0.2c0.1,0,0.1-0.1,0.2-0.1h0.8
	c0.1,0,0.1,0,0.2,0.1c0.1,0.1,0.1,0.1,0.1,0.2V42.2z"/>
<path id="Path_1049-2" style="fill:#334155;" d="M117,32.8c0.3-0.3,0.6-0.5,0.9-0.7c0.3-0.2,0.6-0.3,1-0.3c0.3-0.1,0.6-0.1,1-0.1
	c0.3,0,0.6,0,0.9,0c0.5,0,0.9,0.1,1.4,0.3c0.4,0.2,0.9,0.4,1.2,0.8c0.4,0.4,0.6,0.8,0.8,1.3c0.2,0.6,0.3,1.2,0.3,1.8v6.4
	c0,0.1,0,0.1-0.1,0.2c-0.1,0-0.1,0.1-0.2,0.1h-0.8c-0.1,0-0.1,0-0.2-0.1c-0.1-0.1-0.1-0.1-0.1-0.2V36c0-0.4,0-0.8-0.1-1.1
	c-0.1-0.3-0.3-0.6-0.5-0.9c-0.3-0.3-0.6-0.5-0.9-0.6c-0.5-0.2-1-0.2-1.5-0.2c-0.5,0-0.9,0.1-1.3,0.2c-0.7,0.2-1.3,0.6-1.7,1.1v8
	c0,0.1,0,0.1-0.1,0.2c-0.1,0-0.1,0.1-0.2,0.1H116c-0.1,0-0.1,0-0.2-0.1c-0.1-0.1-0.1-0.1-0.1-0.2V32.2c0-0.1,0-0.1,0.1-0.2
	c0.1,0,0.1-0.1,0.2-0.1h0.7c0.1,0,0.2,0.1,0.2,0.2L117,32.8z"/>
<path id="Path_1050-2" style="fill:#334155;" d="M134.8,41.1c0.2,0,0.2,0.1,0.3,0.2l0.1,0.8v0.1c0,0.1-0.1,0.1-0.1,0.1
	c-0.4,0.1-0.8,0.1-1.3,0.2c-0.5,0-0.9,0.1-1.4,0.1c-0.6,0-1.3-0.1-1.9-0.2c-0.6-0.1-1.1-0.4-1.5-0.8c-0.5-0.4-0.8-0.9-1-1.5
	c-0.3-0.7-0.4-1.5-0.4-2.3v-1.6c0-0.4,0.1-0.8,0.1-1.2c0.1-0.5,0.3-1,0.6-1.5c0.3-0.5,0.8-0.9,1.3-1.3c0.7-0.4,1.5-0.6,2.2-0.5
	c0.8,0,1.7,0.2,2.4,0.6c0.5,0.3,1,0.8,1.3,1.3c0.3,0.5,0.4,1,0.5,1.5c0.1,0.4,0.1,0.8,0.1,1.2v1.3c0,0.1,0,0.1-0.1,0.2
	c-0.1,0-0.1,0.1-0.2,0.1h-7.1v0.5c0,0.5,0.1,1.1,0.4,1.6c0.2,0.4,0.5,0.7,0.8,0.9c0.4,0.2,0.9,0.3,1.3,0.4c0.5,0,1.1,0.1,1.8,0.1
	c0.2,0,0.4,0,0.6,0C134.1,41.2,134.4,41.2,134.8,41.1 M134.9,36.6c0-0.7-0.1-1.4-0.3-2c-0.2-0.4-0.5-0.8-0.8-1.1
	c-0.3-0.2-0.6-0.4-1-0.4c-0.3,0-0.5-0.1-0.8-0.1s-0.6,0-0.8,0.1c-0.4,0.1-0.7,0.2-1,0.4c-0.4,0.3-0.7,0.7-0.8,1.1
	c-0.3,0.6-0.4,1.3-0.3,2H134.9z"/>
<path id="Path_1051-2" style="fill:#334155;" d="M144.4,32.9c-0.2,0-0.3,0-0.5,0h-0.6c-0.4,0-0.8,0.1-1.2,0.3
	c-0.5,0.2-0.9,0.5-1.3,0.9v8.1c0,0.1,0,0.1-0.1,0.2c-0.1,0-0.1,0.1-0.2,0.1h-0.8c-0.1,0-0.1,0-0.2-0.1s-0.1-0.1-0.1-0.2V32
	c0-0.1,0-0.1,0.1-0.2c0.1,0,0.1-0.1,0.2-0.1h0.7c0.1,0,0.2,0.1,0.2,0.2l0.2,0.8c0.7-0.8,1.7-1.2,2.8-1.2h0.3c0.2,0,0.3,0,0.5,0
	c0.1,0,0.2,0.1,0.2,0.2v0.9C144.5,32.8,144.5,32.9,144.4,32.9"/>
<path id="Path_1052-2" style="fill:#334155;" d="M153.4,41.1c0.2,0,0.2,0.1,0.3,0.2l0.1,0.8v0.1c0,0.1-0.1,0.1-0.1,0.1
	c-0.4,0.1-0.8,0.1-1.3,0.2c-0.5,0-0.9,0.1-1.4,0.1c-0.6,0-1.3-0.1-1.9-0.2c-0.6-0.1-1.1-0.4-1.5-0.8c-0.5-0.4-0.8-0.9-1-1.5
	c-0.3-0.7-0.4-1.5-0.4-2.3v-1.6c0-0.4,0.1-0.8,0.1-1.2c0.1-0.5,0.3-1,0.6-1.5c0.3-0.5,0.8-0.9,1.3-1.3c0.7-0.4,1.5-0.6,2.2-0.5
	c0.8,0,1.7,0.2,2.4,0.6c0.5,0.3,1,0.8,1.3,1.3s0.4,1,0.5,1.5c0.1,0.4,0.1,0.8,0.1,1.2v1.3c0,0.1,0,0.1-0.1,0.2
	c-0.1,0-0.1,0.1-0.2,0.1h-7.1v0.5c0,0.5,0.1,1.1,0.4,1.6c0.2,0.4,0.5,0.7,0.8,0.9c0.4,0.2,0.9,0.3,1.3,0.4c0.5,0,1.1,0.1,1.8,0.1
	c0.2,0,0.4,0,0.6,0C152.8,41.2,153.1,41.2,153.4,41.1 M153.5,36.6c0-0.7-0.1-1.4-0.3-2c-0.2-0.4-0.5-0.8-0.8-1.1
	c-0.3-0.2-0.6-0.4-1-0.4c-0.3,0-0.5-0.1-0.8-0.1s-0.6,0-0.8,0.1c-0.4,0.1-0.7,0.2-1,0.4c-0.4,0.3-0.7,0.7-0.8,1.1
	c-0.3,0.6-0.4,1.3-0.3,2H153.5z"/>
<path id="Path_1053-2" style="fill:#334155;" d="M158.7,30.9c-0.2,0-0.4-0.1-0.6-0.2c-0.3-0.3-0.3-0.8-0.1-1.1c0,0,0,0,0.1-0.1
	c0.4-0.2,0.8-0.2,1.2,0c0.3,0.3,0.3,0.8,0,1.1l0,0C159.1,30.8,158.9,30.9,158.7,30.9 M159.3,42.2c0,0.1,0,0.1-0.1,0.2
	c-0.1,0-0.1,0.1-0.2,0.1h-0.8c-0.1,0-0.1,0-0.2-0.1s-0.1-0.1-0.1-0.2V32c0-0.1,0-0.1,0.1-0.2c0.1,0,0.1-0.1,0.2-0.1h0.8
	c0.1,0,0.1,0,0.2,0.1c0.1,0.1,0.1,0.1,0.1,0.2V42.2z"/>
<path id="Path_1054-2" style="fill:#334155;" d="M175,41.4c-0.3,0.3-0.6,0.5-0.9,0.7c-0.3,0.2-0.6,0.3-1,0.3c-0.3,0.1-0.6,0.1-1,0.1
	c-0.3,0-0.6,0-0.9,0c-0.5,0-0.9-0.1-1.4-0.3c-0.4-0.2-0.9-0.4-1.2-0.8c-0.4-0.4-0.6-0.8-0.8-1.3c-0.2-0.6-0.3-1.2-0.3-1.8v-6.4
	c0-0.1,0-0.1,0.1-0.2c0.1,0,0.1-0.1,0.2-0.1h0.8c0.1,0,0.1,0,0.2,0.1c0.1,0.1,0.1,0.1,0.1,0.2v6.4c0,0.4,0,0.8,0.1,1.1
	c0.1,0.3,0.3,0.6,0.5,0.9c0.3,0.3,0.6,0.5,0.9,0.6c0.5,0.1,1,0.2,1.5,0.2s0.9-0.1,1.3-0.2c0.7-0.2,1.3-0.6,1.8-1.1v-8
	c0-0.1,0-0.1,0.1-0.2c0.1,0,0.1-0.1,0.2-0.1h0.8c0.1,0,0.1,0,0.2,0.1c0.1,0.1,0.1,0.1,0.1,0.2V42c0,0.1,0,0.1-0.1,0.2
	c-0.1,0-0.1,0.1-0.2,0.1h-0.7c-0.1,0-0.2-0.1-0.2-0.2L175,41.4z"/>
<path id="Path_1055-2" style="fill:#334155;" d="M181.3,32.8c0.3-0.3,0.6-0.5,0.9-0.7c0.3-0.2,0.6-0.3,1-0.3c0.3-0.1,0.6-0.1,1-0.1
	c0.3,0,0.6,0,0.9,0c0.5,0,0.9,0.1,1.4,0.3c0.4,0.2,0.9,0.4,1.2,0.8c0.4,0.4,0.6,0.8,0.8,1.3c0.2,0.6,0.3,1.2,0.3,1.8v6.4
	c0,0.1,0,0.1-0.1,0.2c-0.1,0-0.1,0.1-0.2,0.1h-0.8c-0.1,0-0.1,0-0.2-0.1c-0.1-0.1-0.1-0.1-0.1-0.2V36c0-0.4,0-0.8-0.1-1.1
	c-0.1-0.3-0.3-0.6-0.5-0.9c-0.3-0.3-0.6-0.5-0.9-0.6c-0.5-0.2-1-0.2-1.5-0.2c-0.5,0-0.9,0.1-1.3,0.2c-0.7,0.2-1.3,0.6-1.7,1.1v8
	c0,0.1,0,0.1-0.1,0.2c-0.1,0-0.1,0.1-0.2,0.1h-0.8c-0.1,0-0.1,0-0.2-0.1c-0.1-0.1-0.1-0.1-0.1-0.2V32.2c0-0.1,0-0.1,0.1-0.2
	c0.1,0,0.1-0.1,0.2-0.1h0.7c0.1,0,0.2,0.1,0.2,0.2L181.3,32.8z"/>
<path id="Path_1056-2" style="fill:#334155;" d="M200.5,41.9c0,0-0.1,0.1-0.4,0.2c-0.3,0.1-0.7,0.2-1.1,0.2
	c-0.4,0.1-0.9,0.1-1.4,0.2c-0.5,0-1,0.1-1.5,0.1c-0.6,0-1.1-0.1-1.6-0.2c-0.5-0.2-1-0.5-1.4-0.9c-0.4-0.5-0.8-1.1-0.9-1.7
	c-0.3-0.9-0.4-1.8-0.3-2.8c0-0.9,0.1-1.8,0.4-2.6c0.2-0.6,0.6-1.2,1-1.6c0.4-0.4,0.9-0.7,1.4-0.8c0.5-0.2,1-0.2,1.6-0.2
	c0.3,0,0.6,0,0.8,0c0.5,0,0.9,0.1,1.4,0.3c0.2,0.1,0.5,0.2,0.8,0.3V29c0-0.1,0-0.1,0.1-0.2c0.1,0,0.1-0.1,0.2-0.1h0.8
	c0.1,0,0.1,0,0.2,0.1c0.1,0.1,0.1,0.1,0.1,0.2L200.5,41.9z M199.2,33.4c-0.3-0.1-0.7-0.2-1-0.3s-0.6-0.1-0.9-0.2
	c-0.3,0-0.5-0.1-0.8-0.1c-0.6,0-1.2,0.1-1.8,0.4c-0.4,0.2-0.8,0.5-1,0.9c-0.2,0.4-0.4,0.9-0.4,1.3c-0.1,0.5-0.1,1-0.1,1.5
	c0,0.5,0,1,0.1,1.5c0,0.5,0.2,0.9,0.4,1.4c0.2,0.4,0.6,0.8,1,1c0.6,0.3,1.2,0.4,1.9,0.4c0.3,0,0.6,0,0.9-0.1c0.3,0,0.6-0.1,0.9-0.1
	s0.6-0.1,0.9-0.2L199.2,33.4z"/>
<path id="Path_1057-2" style="fill:#334155;" d="M217.9,28.6c0.1,0,0.1,0,0.2,0.1c0.1,0.1,0.1,0.1,0.1,0.2v13.3c0,0.1,0,0.1-0.1,0.2
	c-0.1,0-0.1,0.1-0.2,0.1h-0.8c-0.1,0-0.1,0-0.2-0.1s-0.1-0.1-0.1-0.2V37h-7v5.2c0,0.1,0,0.1-0.1,0.2c-0.1,0-0.1,0.1-0.2,0.1h-0.8
	c-0.1,0-0.1,0-0.2-0.1c-0.1-0.1-0.1-0.1-0.1-0.2V28.9c0-0.1,0-0.1,0.1-0.2c0.1,0,0.1-0.1,0.2-0.1h0.8c0.1,0,0.1,0,0.2,0.1
	c0.1,0.1,0.1,0.1,0.1,0.2v6.8h7v-6.8c0-0.1,0-0.1,0.1-0.2c0.1,0,0.1-0.1,0.2-0.1H217.9z"/>
<path id="Path_1058-2" style="fill:#334155;" d="M225.6,42.6c-0.6,0-1.1-0.1-1.6-0.2c-0.5-0.2-1-0.4-1.3-0.8
	c-0.4-0.4-0.7-0.9-0.9-1.5c-0.2-0.7-0.4-1.5-0.3-2.2v-1.4c0-0.8,0.1-1.5,0.3-2.2c0.2-0.5,0.5-1,0.9-1.4s0.8-0.6,1.3-0.8
	c1.1-0.3,2.2-0.3,3.3,0c0.5,0.2,1,0.4,1.3,0.8c0.4,0.4,0.7,0.9,0.9,1.4c0.2,0.7,0.4,1.5,0.3,2.2v1.4c0,0.8-0.1,1.5-0.3,2.2
	c-0.2,0.5-0.5,1-0.9,1.5c-0.4,0.4-0.8,0.6-1.3,0.8C226.7,42.5,226.2,42.6,225.6,42.6 M225.6,41.3c0.8,0,1.5-0.3,2.1-0.8
	c0.6-0.6,0.9-1.3,0.8-2.1v-2.6c0-0.8-0.3-1.6-0.8-2.1c-1.2-1-3-1-4.1,0c-0.6,0.6-0.9,1.3-0.8,2.1v2.6c0,0.8,0.3,1.6,0.8,2.1
	C224.1,41.1,224.8,41.3,225.6,41.3"/>
<path id="Path_1059-2" style="fill:#334155;" d="M234.4,42.2c0,0.1,0,0.1-0.1,0.2c-0.1,0-0.1,0.1-0.2,0.1h-0.8c-0.1,0-0.1,0-0.2-0.1
	s-0.1-0.1-0.1-0.2V28.9c0-0.1,0-0.1,0.1-0.2c0.1,0,0.1-0.1,0.2-0.1h0.8c0.1,0,0.1,0,0.2,0.1c0.1,0.1,0.1,0.1,0.1,0.2V42.2z"/>
<path id="Path_1060-2" style="fill:#334155;" d="M245.1,32.8c0,0.1,0,0.1,0,0.2c0,0.1,0,0.1-0.1,0.2l-5.6,8h5.5c0.1,0,0.1,0,0.2,0.1
	c0,0.1,0.1,0.1,0.1,0.2v0.7c0,0.1,0,0.1-0.1,0.2c-0.1,0.1-0.1,0.1-0.2,0.1h-6.9c-0.1,0-0.1,0-0.2-0.1s-0.1-0.1-0.1-0.2v-0.9
	c0-0.1,0-0.2,0.1-0.3l5.6-8H238c-0.1,0-0.1,0-0.2-0.1c0-0.1-0.1-0.1-0.1-0.2V32c0-0.1,0-0.1,0.1-0.2c0.1-0.1,0.1-0.1,0.2-0.1h6.9
	c0.1,0,0.1,0,0.2,0.1c0.1,0.1,0.1,0.1,0.1,0.2V32.8z"/>
<path id="Path_1061-2" style="fill:#334155;" d="M248.3,28.9c0-0.1,0-0.1,0.1-0.2c0.1,0,0.1-0.1,0.2-0.1h0.8c0.1,0,0.1,0,0.2,0.1
	c0.1,0.1,0.1,0.1,0.1,0.2v3.3c0.3-0.1,0.6-0.2,0.8-0.3c0.2-0.1,0.5-0.1,0.7-0.2c0.2,0,0.5-0.1,0.7-0.1c0.2,0,0.5,0,0.8,0
	c0.5,0,1.1,0.1,1.6,0.2c0.5,0.2,1,0.4,1.4,0.8c0.5,0.5,0.8,1,1,1.6c0.3,0.8,0.4,1.7,0.4,2.6c0,0.9-0.1,1.9-0.3,2.8
	c-0.2,0.6-0.5,1.2-0.9,1.7c-0.4,0.4-0.8,0.7-1.4,0.9c-0.5,0.2-1.1,0.3-1.6,0.2c-0.5,0-1,0-1.5-0.1s-1-0.1-1.4-0.2
	c-0.4-0.1-0.8-0.1-1.1-0.2c-0.3-0.1-0.4-0.1-0.4-0.2L248.3,28.9z M249.7,40.9c0.3,0.1,0.6,0.1,0.9,0.2c0.3,0.1,0.6,0.1,0.9,0.1
	s0.6,0.1,0.9,0.1c0.6,0,1.3-0.1,1.9-0.4c0.4-0.2,0.8-0.6,1-1c0.2-0.4,0.4-0.9,0.4-1.4c0-0.5,0.1-1,0.1-1.5c0-0.5,0-1-0.1-1.5
	s-0.2-0.9-0.4-1.3c-0.2-0.4-0.6-0.7-1-0.9c-0.6-0.3-1.2-0.4-1.8-0.4c-0.3,0-0.6,0-0.8,0.1c-0.3,0.1-0.6,0.1-0.9,0.2
	c-0.3,0.1-0.7,0.2-1,0.3L249.7,40.9z"/>
<path id="Path_1062-2" style="fill:#334155;" d="M267.5,42.2c0,0.1,0,0.1-0.1,0.2c-0.1,0-0.1,0.1-0.2,0.1h-0.7
	c-0.1,0-0.2-0.1-0.2-0.2l-0.1-0.5c-0.3,0.2-0.6,0.3-0.9,0.4c-0.3,0.1-0.5,0.2-0.8,0.3c-0.2,0.1-0.4,0.1-0.7,0.1c-0.2,0-0.3,0-0.3,0
	c-0.5,0-1,0-1.5-0.1c-0.5-0.1-0.9-0.2-1.3-0.5c-0.4-0.2-0.7-0.6-0.9-0.9c-0.2-0.5-0.4-1-0.3-1.5c0-0.5,0.1-1,0.3-1.5
	c0.2-0.4,0.4-0.7,0.7-1c0.3-0.3,0.7-0.4,1.1-0.5c0.4-0.1,0.9-0.2,1.3-0.2h3.2V36c0.1-0.9-0.3-1.7-0.9-2.3c-0.8-0.5-1.7-0.7-2.6-0.7
	c-0.3,0-0.7,0-1,0.1c-0.3,0.1-0.6,0.1-0.9,0.2c-0.1,0-0.2-0.1-0.2-0.2l-0.1-0.8c0-0.1,0.1-0.3,0.2-0.3c0.4-0.1,0.9-0.1,1.3-0.2
	c0.5,0,0.9-0.1,1.3-0.1c1.1-0.1,2.2,0.3,3.1,1c0.8,0.8,1.3,1.9,1.2,3V42.2z M266.2,37.6h-2.4c-0.3,0-0.7,0-1,0s-0.6,0.1-1,0.2
	c-0.3,0.1-0.5,0.3-0.7,0.6s-0.3,0.7-0.3,1.1c0,0.3,0.1,0.7,0.2,1c0.1,0.2,0.3,0.4,0.6,0.6c0.3,0.1,0.6,0.2,0.8,0.3
	c0.4,0,0.7,0.1,1.1,0.1c0.6,0,1.2-0.1,1.7-0.4c0.2-0.1,0.5-0.3,0.6-0.5c0.2-0.2,0.2-0.4,0.2-0.6L266.2,37.6z"/>
<path id="Path_1063-2" style="fill:#334155;" d="M278.3,41.4c-0.3,0.3-0.6,0.5-0.9,0.7c-0.3,0.2-0.6,0.3-1,0.3
	c-0.3,0.1-0.6,0.1-1,0.1c-0.3,0-0.6,0-0.9,0c-0.5,0-0.9-0.1-1.4-0.3c-0.4-0.2-0.9-0.4-1.2-0.8c-0.4-0.4-0.6-0.8-0.8-1.3
	c-0.2-0.6-0.3-1.2-0.3-1.8v-6.4c0-0.1,0-0.1,0.1-0.2c0.1,0,0.1-0.1,0.2-0.1h0.8c0.1,0,0.1,0,0.2,0.1c0.1,0.1,0.1,0.1,0.1,0.2v6.4
	c0,0.4,0,0.8,0.1,1.1c0.1,0.3,0.3,0.6,0.5,0.9c0.3,0.3,0.6,0.5,0.9,0.6c0.5,0.1,1,0.2,1.5,0.2c0.5,0,0.9-0.1,1.3-0.2
	c0.7-0.2,1.3-0.6,1.7-1.1v-8c0-0.1,0-0.1,0.1-0.2c0.1,0,0.1-0.1,0.2-0.1h0.8c0.1,0,0.1,0,0.2,0.1c0.1,0.1,0.1,0.1,0.1,0.2V42
	c0,0.1,0,0.1-0.1,0.2c-0.1,0-0.1,0.1-0.2,0.1h-0.7c-0.1,0-0.2-0.1-0.2-0.2L278.3,41.4z"/>
<path id="Path_1064-2" style="fill:#C00230;" d="M39.3,16.9H26.7c-0.5,0-0.8-0.3-0.9-0.8V16V8.8c0-0.5,0.4-0.9,0.9-0.9
	c0.5,0,0.9,0.4,0.9,0.9v5.9c0,0.3,0.2,0.5,0.5,0.5h0.1h11.2c0.4,0,0.8-0.3,0.9-0.8v-0.1V1.7c0-0.9-0.7-1.7-1.6-1.7c0,0,0,0-0.1,0
	H1.7C0.8,0,0,0.7,0,1.6c0,0,0,0,0,0.1v40.2c0,0.9,0.7,1.7,1.6,1.7c0,0,0,0,0.1,0h10.9c0.4,0,0.8-0.3,0.9-0.8v-0.1V26.9
	c0-0.5,0.3-0.8,0.8-0.9h0.1H27c0.5,0,0.8,0.3,0.9,0.8v0.1v7.4c0,0.5-0.4,0.9-0.9,0.9c-0.5,0-0.9-0.4-0.9-0.9v-5.9
	c0-0.3-0.2-0.5-0.5-0.5h-0.1h-9.8c-0.3,0-0.5,0.2-0.5,0.4v0.1v14.5c0,0.4,0.3,0.8,0.8,0.9h0.1h22.6c0.9,0,1.7-0.7,1.7-1.6l0,0V17.9
	C40.1,17.3,39.8,16.9,39.3,16.9L39.3,16.9 M14.9,16c0,0.5-0.4,0.9-0.9,0.9s-0.9-0.4-0.9-0.9V8.8c0-0.5,0.4-0.9,0.9-0.9
	s0.9,0.4,0.9,0.9V16z"/>
</svg>
